<mxfile host="Electron" modified="2024-04-03T09:45:55.185Z" agent="Mozilla/5.0 (Windows NT 10.0; Win64; x64) AppleWebKit/537.36 (KHTML, like Gecko) draw.io/24.1.0 Chrome/120.0.6099.109 Electron/28.1.0 Safari/537.36" etag="gOeEU4VnSwRmfXTi7d6n" version="24.1.0" type="device">
  <diagram name="第 1 页" id="cvl60UNSSEJ-gTTff14T">
    <mxGraphModel dx="805" dy="539" grid="0" gridSize="10" guides="1" tooltips="1" connect="1" arrows="1" fold="1" page="1" pageScale="1" pageWidth="827" pageHeight="1169" math="0" shadow="0">
      <root>
        <mxCell id="0" />
        <mxCell id="1" parent="0" />
        <mxCell id="Wqf9HPL755YA8oLhYNFE-3" value="" style="edgeStyle=orthogonalEdgeStyle;rounded=0;orthogonalLoop=1;jettySize=auto;html=1;" edge="1" parent="1" source="Wqf9HPL755YA8oLhYNFE-1" target="Wqf9HPL755YA8oLhYNFE-2">
          <mxGeometry relative="1" as="geometry" />
        </mxCell>
        <mxCell id="Wqf9HPL755YA8oLhYNFE-1" value="&lt;font style=&quot;font-size: 15px;&quot;&gt;模型估计&lt;/font&gt;" style="rounded=0;whiteSpace=wrap;html=1;" vertex="1" parent="1">
          <mxGeometry x="360" y="150" width="120" height="60" as="geometry" />
        </mxCell>
        <mxCell id="Wqf9HPL755YA8oLhYNFE-5" value="" style="edgeStyle=orthogonalEdgeStyle;rounded=0;orthogonalLoop=1;jettySize=auto;html=1;" edge="1" parent="1" source="Wqf9HPL755YA8oLhYNFE-2" target="Wqf9HPL755YA8oLhYNFE-4">
          <mxGeometry relative="1" as="geometry" />
        </mxCell>
        <mxCell id="Wqf9HPL755YA8oLhYNFE-2" value="&lt;font style=&quot;font-size: 16px;&quot;&gt;一组图像像素为&lt;/font&gt;&lt;div&gt;&lt;font style=&quot;font-size: 16px;&quot;&gt;坐标系下的&lt;/font&gt;&lt;span style=&quot;font-size: 16px; background-color: initial;&quot;&gt;人体姿态坐标&lt;/span&gt;&lt;/div&gt;" style="rounded=0;whiteSpace=wrap;html=1;" vertex="1" parent="1">
          <mxGeometry x="300" y="240" width="240" height="60" as="geometry" />
        </mxCell>
        <mxCell id="Wqf9HPL755YA8oLhYNFE-7" value="" style="edgeStyle=orthogonalEdgeStyle;rounded=0;orthogonalLoop=1;jettySize=auto;html=1;" edge="1" parent="1" source="Wqf9HPL755YA8oLhYNFE-4" target="Wqf9HPL755YA8oLhYNFE-6">
          <mxGeometry relative="1" as="geometry" />
        </mxCell>
        <mxCell id="Wqf9HPL755YA8oLhYNFE-4" value="&lt;font style=&quot;font-size: 16px;&quot;&gt;相似度计算&lt;/font&gt;" style="rounded=0;whiteSpace=wrap;html=1;" vertex="1" parent="1">
          <mxGeometry x="360" y="340" width="120" height="60" as="geometry" />
        </mxCell>
        <mxCell id="Wqf9HPL755YA8oLhYNFE-9" value="" style="edgeStyle=orthogonalEdgeStyle;rounded=0;orthogonalLoop=1;jettySize=auto;html=1;" edge="1" parent="1" source="Wqf9HPL755YA8oLhYNFE-6" target="Wqf9HPL755YA8oLhYNFE-8">
          <mxGeometry relative="1" as="geometry" />
        </mxCell>
        <mxCell id="Wqf9HPL755YA8oLhYNFE-6" value="&lt;font style=&quot;font-size: 16px;&quot;&gt;一组以人体自身&lt;/font&gt;&lt;font style=&quot;background-color: initial; font-size: 16px;&quot;&gt;为&lt;/font&gt;&lt;div&gt;&lt;font style=&quot;background-color: initial; font-size: 16px;&quot;&gt;坐标系的&lt;/font&gt;&lt;span style=&quot;background-color: initial; font-size: 16px;&quot;&gt;骨骼点相似度&lt;/span&gt;&lt;/div&gt;" style="rounded=0;whiteSpace=wrap;html=1;" vertex="1" parent="1">
          <mxGeometry x="302.5" y="430" width="235" height="60" as="geometry" />
        </mxCell>
        <mxCell id="Wqf9HPL755YA8oLhYNFE-8" value="&lt;font style=&quot;font-size: 16px;&quot;&gt;后续姿态评估&lt;/font&gt;" style="rounded=0;whiteSpace=wrap;html=1;" vertex="1" parent="1">
          <mxGeometry x="360" y="530" width="120" height="60" as="geometry" />
        </mxCell>
      </root>
    </mxGraphModel>
  </diagram>
</mxfile>
